<svg id="visual" viewBox="0 0 1920 1080" width="1920" height="1080" xmlns="http://www.w3.org/2000/svg" xmlns:xlink="http://www.w3.org/1999/xlink" version="1.1"><rect x="0" y="0" width="1920" height="1080" fill="#09090b"></rect><defs><linearGradient id="grad1_0" x1="43.8%" y1="100%" x2="100%" y2="0%"><stop offset="14.444444444444446%" stop-color="#1f0f44" stop-opacity="1"></stop><stop offset="85.55555555555554%" stop-color="#1f0f44" stop-opacity="1"></stop></linearGradient></defs><defs><linearGradient id="grad1_1" x1="43.8%" y1="100%" x2="100%" y2="0%"><stop offset="14.444444444444446%" stop-color="#1f0f44" stop-opacity="1"></stop><stop offset="85.55555555555554%" stop-color="#1a103d" stop-opacity="1"></stop></linearGradient></defs><defs><linearGradient id="grad1_2" x1="43.8%" y1="100%" x2="100%" y2="0%"><stop offset="14.444444444444446%" stop-color="#161135" stop-opacity="1"></stop><stop offset="85.55555555555554%" stop-color="#1a103d" stop-opacity="1"></stop></linearGradient></defs><defs><linearGradient id="grad1_3" x1="43.8%" y1="100%" x2="100%" y2="0%"><stop offset="14.444444444444446%" stop-color="#161135" stop-opacity="1"></stop><stop offset="85.55555555555554%" stop-color="#13102e" stop-opacity="1"></stop></linearGradient></defs><defs><linearGradient id="grad1_4" x1="43.8%" y1="100%" x2="100%" y2="0%"><stop offset="14.444444444444446%" stop-color="#120f26" stop-opacity="1"></stop><stop offset="85.55555555555554%" stop-color="#13102e" stop-opacity="1"></stop></linearGradient></defs><defs><linearGradient id="grad1_5" x1="43.8%" y1="100%" x2="100%" y2="0%"><stop offset="14.444444444444446%" stop-color="#120f26" stop-opacity="1"></stop><stop offset="85.55555555555554%" stop-color="#100d1e" stop-opacity="1"></stop></linearGradient></defs><defs><linearGradient id="grad1_6" x1="43.8%" y1="100%" x2="100%" y2="0%"><stop offset="14.444444444444446%" stop-color="#0c0b16" stop-opacity="1"></stop><stop offset="85.55555555555554%" stop-color="#100d1e" stop-opacity="1"></stop></linearGradient></defs><defs><linearGradient id="grad1_7" x1="43.8%" y1="100%" x2="100%" y2="0%"><stop offset="14.444444444444446%" stop-color="#0c0b16" stop-opacity="1"></stop><stop offset="85.55555555555554%" stop-color="#09090b" stop-opacity="1"></stop></linearGradient></defs><defs><linearGradient id="grad2_0" x1="0%" y1="100%" x2="56.3%" y2="0%"><stop offset="14.444444444444446%" stop-color="#1f0f44" stop-opacity="1"></stop><stop offset="85.55555555555554%" stop-color="#1f0f44" stop-opacity="1"></stop></linearGradient></defs><defs><linearGradient id="grad2_1" x1="0%" y1="100%" x2="56.3%" y2="0%"><stop offset="14.444444444444446%" stop-color="#1a103d" stop-opacity="1"></stop><stop offset="85.55555555555554%" stop-color="#1f0f44" stop-opacity="1"></stop></linearGradient></defs><defs><linearGradient id="grad2_2" x1="0%" y1="100%" x2="56.3%" y2="0%"><stop offset="14.444444444444446%" stop-color="#1a103d" stop-opacity="1"></stop><stop offset="85.55555555555554%" stop-color="#161135" stop-opacity="1"></stop></linearGradient></defs><defs><linearGradient id="grad2_3" x1="0%" y1="100%" x2="56.3%" y2="0%"><stop offset="14.444444444444446%" stop-color="#13102e" stop-opacity="1"></stop><stop offset="85.55555555555554%" stop-color="#161135" stop-opacity="1"></stop></linearGradient></defs><defs><linearGradient id="grad2_4" x1="0%" y1="100%" x2="56.3%" y2="0%"><stop offset="14.444444444444446%" stop-color="#13102e" stop-opacity="1"></stop><stop offset="85.55555555555554%" stop-color="#120f26" stop-opacity="1"></stop></linearGradient></defs><defs><linearGradient id="grad2_5" x1="0%" y1="100%" x2="56.3%" y2="0%"><stop offset="14.444444444444446%" stop-color="#100d1e" stop-opacity="1"></stop><stop offset="85.55555555555554%" stop-color="#120f26" stop-opacity="1"></stop></linearGradient></defs><defs><linearGradient id="grad2_6" x1="0%" y1="100%" x2="56.3%" y2="0%"><stop offset="14.444444444444446%" stop-color="#100d1e" stop-opacity="1"></stop><stop offset="85.55555555555554%" stop-color="#0c0b16" stop-opacity="1"></stop></linearGradient></defs><defs><linearGradient id="grad2_7" x1="0%" y1="100%" x2="56.3%" y2="0%"><stop offset="14.444444444444446%" stop-color="#09090b" stop-opacity="1"></stop><stop offset="85.55555555555554%" stop-color="#0c0b16" stop-opacity="1"></stop></linearGradient></defs><g transform="translate(1920, 1080)"><path d="M-594 0C-573.5 -70.8 -553.1 -141.5 -529.4 -219.3C-505.7 -297 -478.8 -381.8 -420 -420C-361.2 -458.2 -270.5 -449.9 -195.2 -471.2C-119.8 -492.4 -59.9 -543.2 0 -594L0 0Z" fill="#0b0a11"></path><path d="M-519.7 0C-501.8 -61.9 -483.9 -123.8 -463.2 -191.9C-442.5 -259.9 -419 -334.1 -367.5 -367.5C-316.1 -401 -236.7 -393.7 -170.8 -412.3C-104.9 -430.9 -52.4 -475.3 0 -519.7L0 0Z" fill="#0e0c1a"></path><path d="M-445.5 0C-430.1 -53.1 -414.8 -106.1 -397 -164.5C-379.3 -222.8 -359.1 -286.3 -315 -315C-270.9 -343.7 -202.9 -337.5 -146.4 -353.4C-89.9 -369.3 -44.9 -407.4 0 -445.5L0 0Z" fill="#110e22"></path><path d="M-371.2 0C-358.5 -44.2 -345.7 -88.4 -330.9 -137C-316.1 -185.6 -299.3 -238.6 -262.5 -262.5C-225.8 -286.4 -169.1 -281.2 -122 -294.5C-74.9 -307.8 -37.5 -339.5 0 -371.2L0 0Z" fill="#13102a"></path><path d="M-297 0C-286.8 -35.4 -276.5 -70.8 -264.7 -109.6C-252.9 -148.5 -239.4 -190.9 -210 -210C-180.6 -229.1 -135.2 -225 -97.6 -235.6C-59.9 -246.2 -30 -271.6 0 -297L0 0Z" fill="#151032"></path><path d="M-222.7 0C-215.1 -26.5 -207.4 -53.1 -198.5 -82.2C-189.6 -111.4 -179.6 -143.2 -157.5 -157.5C-135.5 -171.8 -101.4 -168.7 -73.2 -176.7C-44.9 -184.7 -22.5 -203.7 0 -222.7L0 0Z" fill="#181139"></path><path d="M-148.5 0C-143.4 -17.7 -138.3 -35.4 -132.3 -54.8C-126.4 -74.3 -119.7 -95.4 -105 -105C-90.3 -114.6 -67.6 -112.5 -48.8 -117.8C-30 -123.1 -15 -135.8 0 -148.5L0 0Z" fill="#1c1040"></path><path d="M-74.2 0C-71.7 -8.8 -69.1 -17.7 -66.2 -27.4C-63.2 -37.1 -59.9 -47.7 -52.5 -52.5C-45.2 -57.3 -33.8 -56.2 -24.4 -58.9C-15 -61.6 -7.5 -67.9 0 -74.2L0 0Z" fill="#1f0f44"></path></g><g transform="translate(0, 0)"><path d="M594 0C588.5 80.4 583 160.7 548.8 227.3C514.6 293.9 451.8 346.7 391.7 391.7C331.7 436.7 274.5 473.9 209.7 506.3C144.9 538.7 72.4 566.3 0 594L0 0Z" fill="#0b0a11"></path><path d="M519.8 0C514.9 70.3 510.1 140.6 480.2 198.9C450.3 257.2 395.3 303.4 342.8 342.8C290.3 382.1 240.2 414.6 183.5 443C126.8 471.4 63.4 495.6 0 519.8L0 0Z" fill="#0e0c1a"></path><path d="M445.5 0C441.4 60.3 437.2 120.5 411.6 170.5C386 220.4 338.8 260.1 293.8 293.8C248.8 327.5 205.9 355.4 157.3 379.7C108.7 404 54.3 424.8 0 445.5L0 0Z" fill="#110e22"></path><path d="M371.3 0C367.8 50.2 364.4 100.4 343 142.1C321.6 183.7 282.3 216.7 244.8 244.8C207.3 273 171.6 296.2 131.1 316.4C90.6 336.7 45.3 354 0 371.3L0 0Z" fill="#13102a"></path><path d="M297 0C294.2 40.2 291.5 80.4 274.4 113.7C257.3 147 225.9 173.4 195.9 195.9C165.9 218.4 137.3 236.9 104.9 253.1C72.4 269.3 36.2 283.2 0 297L0 0Z" fill="#151032"></path><path d="M222.8 0C220.7 30.1 218.6 60.3 205.8 85.2C193 110.2 169.4 130 146.9 146.9C124.4 163.8 102.9 177.7 78.6 189.9C54.3 202 27.2 212.4 0 222.8L0 0Z" fill="#181139"></path><path d="M148.5 0C147.1 20.1 145.7 40.2 137.2 56.8C128.7 73.5 112.9 86.7 97.9 97.9C82.9 109.2 68.6 118.5 52.4 126.6C36.2 134.7 18.1 141.6 0 148.5L0 0Z" fill="#1c1040"></path><path d="M74.3 0C73.6 10 72.9 20.1 68.6 28.4C64.3 36.7 56.5 43.3 49 49C41.5 54.6 34.3 59.2 26.2 63.3C18.1 67.3 9.1 70.8 0 74.3L0 0Z" fill="#1f0f44"></path></g></svg>