<svg version="1.2" xmlns="http://www.w3.org/2000/svg" viewBox="0 0 1920 1080" width="1920" height="1080">
	<title>main-bg</title>
	<style>
		.s0 { fill: #ffffff } 
		.s1 { fill: #09090b } 
		.s2 { fill: none;stroke: #fafafa;stroke-width: 4 } 
		.s3 { fill: #0b0a11 } 
		.s4 { fill: #0e0c1a } 
		.s5 { fill: #110e22 } 
		.s6 { fill: #13102a } 
		.s7 { fill: #151032 } 
		.s8 { fill: #181139 } 
		.s9 { fill: #1c1040 } 
		.s10 { fill: #1f0f44 } 
		.s11 { fill: #fafafa } 
		.s12 { fill: #09090b;stroke: #ffffff;stroke-width: 8.9 } 
		.s13 { fill: #09090b;stroke: #ffffff;stroke-width: 2.1 } 
	</style>
	<g id="86a43c3d-8aab-4414-aa38-2b1ae66ba44a">
		<path fill-rule="evenodd" class="s0" d="m0 0h1920v1080h-1920z"/>
	</g>
	<g id="e7b5052b-9bff-43f5-8add-0c634f666545">
	</g>
	<g>
		<g>
			<g>
				<path fill-rule="evenodd" class="s1" d="m-4.8-2.1h1929.6v1101.6h-1929.6z"/>
			</g>
			<g>
				<path fill-rule="evenodd" class="s2" d="m182.1 112.1c-35.5 0-64.3-29.2-64.3-65.3 0-36.1 28.8-65.3 64.3-65.3 35.6 0 64.4 29.2 64.4 65.3 0 36.1-28.8 65.3-64.4 65.3z"/>
			</g>
			<g>
				<path fill-rule="evenodd" class="s2" d="m1018.3 1005.6c-1.1 0-2-0.9-2-2 0-1.1 0.9-2 2-2 1.1 0 2 0.9 2 2 0 1.1-0.9 2-2 2z"/>
			</g>
			<g>
				<path fill-rule="evenodd" class="s2" d="m596.2 303.9c-5.6 0-10.1-4.6-10.1-10.2 0-5.7 4.5-10.2 10.1-10.2 5.5 0 10 4.5 10 10.2 0 5.6-4.5 10.2-10 10.2z"/>
			</g>
			<g>
				<path fill-rule="evenodd" class="s2" d="m753 426.3c-16.7 0-30.2-13.7-30.2-30.6 0-17 13.5-30.6 30.2-30.6 16.6 0 30.1 13.6 30.1 30.6 0 16.9-13.5 30.6-30.1 30.6z"/>
			</g>
			<g>
				<path fill-rule="evenodd" class="s2" d="m1354 642.5c-2.3 0-4.1-1.8-4.1-4.1 0-2.2 1.8-4 4.1-4 2.2 0 4 1.8 4 4 0 2.3-1.8 4.1-4 4.1z"/>
			</g>
			<g>
				<path fill-rule="evenodd" class="s2" d="m493.7 899.5c-25.6 0-46.2-20.9-46.2-46.9 0-25.9 20.6-46.9 46.2-46.9 25.5 0 46.2 21 46.2 46.9 0 26-20.7 46.9-46.2 46.9z"/>
			</g>
			<g>
				<path fill-rule="evenodd" class="s2" d="m334.9 138.6c-8.9 0-16.1-7.3-16.1-16.3 0-9 7.2-16.3 16.1-16.3 8.9 0 16.1 7.3 16.1 16.3 0 9-7.2 16.3-16.1 16.3z"/>
			</g>
			<g>
				<path fill-rule="evenodd" class="s2" d="m320.8 642.5c-1.1 0-2-0.9-2-2 0-1.2 0.9-2.1 2-2.1 1.1 0 2 0.9 2 2.1 0 1.1-0.9 2-2 2z"/>
			</g>
			<g>
				<path fill-rule="evenodd" class="s2" d="m1908.7 620.1c-3.3 0-6-2.8-6-6.1 0-3.4 2.7-6.2 6-6.2 3.4 0 6 2.8 6 6.2 0 3.3-2.6 6.1-6 6.1z"/>
			</g>
			<g>
				<path fill-rule="evenodd" class="s2" d="m1456.5 399.8c-13.4-0.1-24.1-11-24.1-24.5 0-13.6 10.7-24.5 24.1-24.5 13.3 0 24.1 10.9 24.1 24.5 0 13.5-10.8 24.4-24.1 24.4z"/>
			</g>
			<g>
				<path fill-rule="evenodd" class="s2" d="m1550.9 136.6c-15.5 0-28.1-12.8-28.1-28.6 0-15.8 12.6-28.5 28.1-28.5 15.6 0 28.2 12.7 28.2 28.5 0 15.8-12.6 28.6-28.2 28.6z"/>
			</g>
		</g>
	</g>
	<g>
		<g style="opacity: .45">
			<g>
				<path fill-rule="evenodd" class="s1" d="m0 0h1920v1080h-1920z"/>
			</g>
			<g>
				<path class="s3" d="m1326 1080c20.5-70.8 40.9-141.5 64.6-219.3 23.7-77.7 50.6-162.5 109.4-200.7 58.8-38.2 149.5-29.9 224.8-51.2 75.4-21.2 135.3-72 195.2-122.8v594z"/>
			</g>
			<g>
				<path class="s4" d="m1400.3 1080c17.9-61.9 35.8-123.8 56.5-191.9 20.7-68 44.2-142.2 95.7-175.6 51.4-33.5 130.8-26.2 196.7-44.8 65.9-18.6 118.4-63 170.8-107.4v519.7z"/>
			</g>
			<g>
				<path class="s5" d="m1474.5 1080c15.4-53.1 30.7-106.1 48.5-164.5 17.7-58.3 37.9-121.8 82-150.5 44.1-28.7 112.1-22.5 168.6-38.4 56.5-15.9 101.5-54 146.4-92.1v445.5z"/>
			</g>
			<g>
				<path class="s6" d="m1548.8 1080c12.7-44.2 25.5-88.4 40.3-137 14.8-48.6 31.6-101.6 68.4-125.5 36.7-23.9 93.4-18.7 140.5-32 47.1-13.3 84.5-45 122-76.7v371.2z"/>
			</g>
			<g>
				<path class="s7" d="m1623 1080c10.2-35.4 20.5-70.8 32.3-109.6 11.8-38.9 25.3-81.3 54.7-100.4 29.4-19.1 74.8-15 112.4-25.6 37.7-10.6 67.6-36 97.6-61.4v297z"/>
			</g>
			<g>
				<path class="s8" d="m1697.3 1080c7.6-26.5 15.3-53.1 24.2-82.2 8.9-29.2 18.9-61 41-75.3 22-14.3 56.1-11.2 84.3-19.2 28.3-8 50.7-27 73.2-46v222.7z"/>
			</g>
			<g>
				<path class="s9" d="m1771.5 1080c5.1-17.7 10.2-35.4 16.2-54.8 5.9-19.5 12.6-40.6 27.3-50.2 14.7-9.6 37.4-7.5 56.2-12.8 18.8-5.3 33.8-18 48.8-30.7v148.5z"/>
			</g>
			<g>
				<path class="s10" d="m1845.8 1080c2.5-8.8 5.1-17.7 8-27.4 3-9.7 6.3-20.3 13.7-25.1 7.3-4.8 18.7-3.7 28.1-6.4 9.4-2.7 16.9-9 24.4-15.3v74.2z"/>
			</g>
			<g>
				<path class="s3" d="m594 0c-5.5 80.4-11 160.7-45.2 227.3-34.2 66.6-97 119.4-157.1 164.4-60 45-117.2 82.2-182 114.6-64.8 32.4-137.3 60-209.7 87.7v-594z"/>
			</g>
			<g>
				<path class="s4" d="m519.8 0c-4.9 70.3-9.7 140.6-39.6 198.9-29.9 58.3-84.9 104.5-137.4 143.9-52.5 39.3-102.6 71.8-159.3 100.2-56.7 28.4-120.1 52.6-183.5 76.8v-519.8z"/>
			</g>
			<g>
				<path class="s5" d="m445.5 0c-4.1 60.3-8.3 120.5-33.9 170.5-25.6 49.9-72.8 89.6-117.8 123.3-45 33.7-87.9 61.6-136.5 85.9-48.6 24.3-103 45.1-157.3 65.8v-445.5z"/>
			</g>
			<g>
				<path class="s6" d="m371.3 0c-3.5 50.2-6.9 100.4-28.3 142.1-21.4 41.6-60.7 74.6-98.2 102.7-37.5 28.2-73.2 51.4-113.7 71.6-40.5 20.3-85.8 37.6-131.1 54.9v-371.3z"/>
			</g>
			<g>
				<path class="s7" d="m297 0c-2.8 40.2-5.5 80.4-22.6 113.7-17.1 33.3-48.5 59.7-78.5 82.2-30 22.5-58.6 41-91 57.2-32.5 16.2-68.7 30.1-104.9 43.9v-297z"/>
			</g>
			<g>
				<path class="s8" d="m222.8 0c-2.1 30.1-4.2 60.3-17 85.2-12.8 25-36.4 44.8-58.9 61.7-22.5 16.9-44 30.8-68.3 43-24.3 12.1-51.4 22.5-78.6 32.9v-222.8z"/>
			</g>
			<g>
				<path class="s9" d="m148.5 0c-1.4 20.1-2.8 40.2-11.3 56.8-8.5 16.7-24.3 29.9-39.3 41.1-15 11.3-29.3 20.6-45.5 28.7-16.2 8.1-34.3 15-52.4 21.9v-148.5z"/>
			</g>
			<g>
				<path class="s10" d="m74.3 0c-0.7 10-1.4 20.1-5.7 28.4-4.3 8.3-12.1 14.9-19.6 20.6-7.5 5.6-14.7 10.2-22.8 14.3-8.1 4-17.1 7.5-26.2 11v-74.3z"/>
			</g>
		</g>
	</g>
	<g>
		<path fill-rule="evenodd" class="s11" d="m235.7 523.1c-30.9 0-55.8-24.9-55.8-55.8 0-30.8 24.9-55.7 55.8-55.7 30.8 0 55.7 24.9 55.7 55.8 0 30.8-24.9 55.7-55.7 55.7z"/>
	</g>
	<g>
		<path fill-rule="evenodd" class="s11" d="m1740.5 1060.9c-2.7 0-4.9-2.2-4.9-4.9 0-2.7 2.2-4.9 4.9-4.9 2.7 0 4.9 2.2 4.9 4.9 0 2.7-2.2 4.9-4.9 4.9z"/>
	</g>
	<g>
		<path fill-rule="evenodd" class="s11" d="m1396.1 496.8c-6.3 0-11.5-5.2-11.5-11.5 0-6.3 5.2-11.5 11.5-11.5 6.4 0 11.5 5.2 11.5 11.5 0 6.3-5.1 11.5-11.5 11.5z"/>
	</g>
	<g>
		<path fill-rule="evenodd" class="s11" d="m1757.8 420.6c-15.4 0-27.9-12.5-27.9-27.9 0-15.4 12.5-27.9 27.9-27.9 15.4 0 27.9 12.5 27.9 27.9 0 15.4-12.5 27.9-27.9 27.9z"/>
	</g>
	<g>
		<path fill-rule="evenodd" class="s11" d="m2014.4 769c-3.6 0-6.6-2.9-6.6-6.5 0-3.7 3-6.6 6.6-6.6 3.6 0 6.5 2.9 6.5 6.6 0 3.6-2.9 6.5-6.5 6.5z"/>
	</g>
	<g>
		<path fill-rule="evenodd" class="s11" d="m1619.9 976.7c-22.6 0-41-18.3-41-41 0-22.7 18.4-41 41-41 22.7 0 41 18.3 41 41 0 22.7-18.3 41-41 41z"/>
	</g>
	<g>
		<path fill-rule="evenodd" class="s11" d="m1182.9 363.9c-9.1 0-16.4-7.3-16.4-16.4 0-9 7.3-16.4 16.4-16.4 9.1 0 16.4 7.4 16.4 16.4 0 9.1-7.3 16.4-16.4 16.4z"/>
	</g>
	<g>
		<path fill-rule="evenodd" class="s11" d="m1171.4 769c-2.7 0-4.9-2.2-4.9-4.9 0-2.7 2.2-4.9 4.9-4.9 2.8 0 5 2.2 5 4.9 0 2.7-2.2 4.9-5 4.9z"/>
	</g>
	<g>
		<path fill-rule="evenodd" class="s11" d="m2467 751c-4.5 0-8.2-3.7-8.2-8.2 0-4.6 3.7-8.2 8.2-8.2 4.6 0 8.2 3.6 8.2 8.2 0 4.5-3.6 8.2-8.2 8.2z"/>
	</g>
	<g>
		<path fill-rule="evenodd" class="s11" d="m2098 573.9c-12.7 0-22.9-10.3-22.9-23 0-12.7 10.2-23 22.9-23 12.7 0 23 10.3 23 23 0 12.7-10.3 23-23 23z"/>
	</g>
	<g>
		<path fill-rule="evenodd" class="s11" d="m2175.1 362.3c-14.5 0-26.2-11.7-26.2-26.2 0-14.6 11.7-26.3 26.2-26.3 14.5 0 26.3 11.7 26.3 26.3-0.1 14.5-11.8 26.2-26.3 26.2z"/>
	</g>
	<g>
		<path class="s12" d="m1336 983.5l-97.7-70.2 70.2-97.7 97.7 70.2zm-93.5-70.9l92.8 66.8 66.8-92.9-92.9-66.8z"/>
	</g>
	<g>
		<path class="s13" d="m856.6 155.2l-46.1-33.1 33.1-46.1 46.1 33.1zm-44.1-33.4l43.7 31.5 31.5-43.8-43.7-31.4z"/>
	</g>
	<g>
		<path class="s13" d="m208.1 842l-46.1-33.1 33.1-46 46.1 33.1zm-44.1-33.4l43.7 31.4 31.5-43.7-43.7-31.5z"/>
	</g>
</svg>